<svg width="24" height="24" viewBox="0 0 24 24" fill="none" xmlns="http://www.w3.org/2000/svg">
<g filter="url(#filter0_d_1214_139)">
<mask id="path-1-inside-1_1214_139" fill="white">
<path fill-rule="evenodd" clip-rule="evenodd" d="M16 13L16 11L8 11L8 13L4 10L8 7L8 9L16 9L16 7L20 10L16 13Z"/>
</mask>
<path fill-rule="evenodd" clip-rule="evenodd" d="M16 13L16 11L8 11L8 13L4 10L8 7L8 9L16 9L16 7L20 10L16 13Z" fill="black"/>
<path d="M16 11L17 11L17 10L16 10L16 11ZM16 13L15 13L15 15L16.6 13.8L16 13ZM8 11L8 10L7 10L7 11L8 11ZM8 13L7.4 13.8L9 15L9 13L8 13ZM4 10L3.4 9.2L2.33333 10L3.4 10.8L4 10ZM8 7L9 7L9 5L7.4 6.2L8 7ZM8 9L7 9L7 10L8 10L8 9ZM16 9L16 10L17 10L17 9L16 9ZM16 7L16.6 6.2L15 5L15 7L16 7ZM20 10L20.6 10.8L21.6667 10L20.6 9.2L20 10ZM15 11L15 13L17 13L17 11L15 11ZM8 12L16 12L16 10L8 10L8 12ZM7 11L7 13L9 13L9 11L7 11ZM8.6 12.2L4.6 9.2L3.4 10.8L7.4 13.8L8.6 12.2ZM4.6 10.8L8.6 7.8L7.4 6.2L3.4 9.2L4.6 10.8ZM7 7L7 9L9 9L9 7L7 7ZM16 8L8 8L8 10L16 10L16 8ZM15 7L15 9L17 9L17 7L15 7ZM20.6 9.2L16.6 6.2L15.4 7.8L19.4 10.8L20.6 9.2ZM16.6 13.8L20.6 10.8L19.4 9.2L15.4 12.2L16.6 13.8Z" fill="black" mask="url(#path-1-inside-1_1214_139)"/>
<mask id="path-3-inside-2_1214_139" fill="white">
<path fill-rule="evenodd" clip-rule="evenodd" d="M15 6L13 6L13 14L15 14L12 18L9 14L11 14L11 6H9L12 2L15 6Z"/>
</mask>
<path fill-rule="evenodd" clip-rule="evenodd" d="M15 6L13 6L13 14L15 14L12 18L9 14L11 14L11 6H9L12 2L15 6Z" fill="black"/>
<path d="M13 6V5H12V6H13ZM15 6V7H17L15.8 5.4L15 6ZM13 14H12V15H13V14ZM15 14L15.8 14.6L17 13H15V14ZM12 18L11.2 18.6L12 19.6667L12.8 18.6L12 18ZM9 14L9 13L7 13L8.2 14.6L9 14ZM11 14L11 15L12 15V14H11ZM11 6H12V5H11V6ZM9 6L8.2 5.4L7 7H9V6ZM12 2L12.8 1.4L12 0.333333L11.2 1.4L12 2ZM13 7H15V5L13 5V7ZM14 14L14 6L12 6L12 14H14ZM13 15L15 15V13L13 13V15ZM14.2 13.4L11.2 17.4L12.8 18.6L15.8 14.6L14.2 13.4ZM12.8 17.4L9.8 13.4L8.2 14.6L11.2 18.6L12.8 17.4ZM9 15L11 15L11 13L9 13L9 15ZM10 6L10 14H12L12 6H10ZM9 7H11V5H9V7ZM11.2 1.4L8.2 5.4L9.8 6.6L12.8 2.6L11.2 1.4ZM15.8 5.4L12.8 1.4L11.2 2.6L14.2 6.6L15.8 5.4Z" fill="black" mask="url(#path-3-inside-2_1214_139)"/>
</g>
<defs>
<filter id="filter0_d_1214_139" x="0" y="0" width="24" height="24" filterUnits="userSpaceOnUse" color-interpolation-filters="sRGB">
<feFlood flood-opacity="0" result="BackgroundImageFix"/>
<feColorMatrix in="SourceAlpha" type="matrix" values="0 0 0 0 0 0 0 0 0 0 0 0 0 0 0 0 0 0 127 0" result="hardAlpha"/>
<feOffset dy="2"/>
<feGaussianBlur stdDeviation="2"/>
<feColorMatrix type="matrix" values="0 0 0 0 0 0 0 0 0 0 0 0 0 0 0 0 0 0 0.25 0"/>
<feBlend mode="normal" in2="BackgroundImageFix" result="effect1_dropShadow_1214_139"/>
<feBlend mode="normal" in="SourceGraphic" in2="effect1_dropShadow_1214_139" result="shape"/>
</filter>
</defs>
</svg>
